<?xml version="1.0" encoding="utf-8"?>
<!-- Generator: Adobe Illustrator 25.2.0, SVG Export Plug-In . SVG Version: 6.00 Build 0)  -->
<svg version="1.1" id="Layer_1" xmlns="http://www.w3.org/2000/svg" xmlns:xlink="http://www.w3.org/1999/xlink" x="0px" y="0px"
	 viewBox="0 0 500 500" style="enable-background:new 0 0 500 500;" xml:space="preserve">
<style type="text/css">
	.st0{fill:#FFC8DD;stroke:#FFFFFF;stroke-width:7.2516;stroke-linecap:round;stroke-miterlimit:7.2;}
	.st1{fill:none;stroke:#000000;stroke-width:7.2516;stroke-linecap:round;stroke-miterlimit:7.2;}
	.st2{fill:#7DD2ED;stroke:#FFFFFF;stroke-width:7.2516;stroke-miterlimit:7.2;}
	.st3{fill:#7DD2ED;stroke:#FFFFFF;stroke-width:3.3572;stroke-miterlimit:7.2;}
	.st4{fill:none;stroke:#FFFFFF;stroke-width:6.5406;stroke-linecap:round;stroke-miterlimit:7.2;}
	.st5{fill:#7DD2ED;stroke:#FFFFFF;stroke-width:6.7144;stroke-miterlimit:7.2;}
	.st6{fill:#FFFFFF;}
</style>
<path id="XMLID_24_" class="st0" d="M214.8,204.6c-6,3-21.8,12.1-30.6,30.7c-10.4,22.2-6,47.7,5.5,64.8c0.7,1,1.3,2,2,2.9
	c19.8,25.7,70.5,32.2,107.9,15.4c25.5-11.4,39.1-31.2,45-39.8c27.9-41.6,38.4-112,1.2-151.2c-23-24.2-55.1-27.2-81.1-29.4
	c-52.9-4.4-93.8,15.3-111.8,25.3c-69.2,33.6-88,107.6-62.4,146.4c17.8,26.9,58.4,38.8,99.9,31.4"/>
<path id="XMLID_23_" class="st1" d="M400.7,376.8"/>
<path id="XMLID_22_" class="st2" d="M369.9,356C134.6,320.8,71,319.1,50,320.4c-7.7,0.5-17.5,1.8-18,6c-0.3,3.9,5.4,8.2,11.6,9.7
	c42.5,10.4,200.9,28.2,322.8,41c2.4,0.3,25.7,3.5,36.6-11.1c3.4-4.4,6.7-11.4,4-15.1C402.2,343.9,378.7,352.5,369.9,356z"/>
<circle id="XMLID_21_" class="st2" cx="151.2" cy="372" r="15.4"/>
<circle id="XMLID_20_" class="st2" cx="266.7" cy="386.8" r="15.4"/>
<path class="st3" d="M423,360c-0.9,0-1.9-0.4-2.6-1.1c-1.4-1.4-1.4-3.7,0-5.1c0.1-0.1,2.1-2.1,1.7-5c-0.4-2.6-2.5-4-2.6-4.1
	c-1.7-1.1-2.1-3.4-1-5c1.1-1.7,3.4-2.1,5-1c0.8,0.5,4.8,3.5,5.8,9c0.9,6.4-3.2,10.7-3.7,11.2C424.8,359.6,423.9,360,423,360z"/>
<path class="st3" d="M442.3,363.9c-0.8,0-1.5-0.2-2.2-0.7c-1.6-1.2-1.9-3.5-0.7-5.1c2.3-3,3.3-6.3,3.1-9.7c-0.2-3.7-1.8-7.1-5-10.2
	l-0.2-0.2c-1.4-1.4-1.4-3.7,0-5.1s3.7-1.4,5.1,0l0.1,0.1c5.6,5.4,7,11.2,7.1,15c0.2,3.5-0.5,8.9-4.6,14.4
	C444.5,363.4,443.4,363.9,442.3,363.9z"/>
<path class="st3" d="M459.6,369.8c-0.7,0-1.4-0.2-2-0.7c-1.5-1.1-1.8-3.2-0.7-4.7c4.3-5.7,6.3-12,6-18.6c-0.3-7.1-3.5-13.6-9.4-19.4
	l-0.3-0.3c-1.3-1.3-1.3-3.4,0-4.7c1.3-1.3,3.4-1.3,4.7,0l0.2,0.2c8.9,8.7,11.1,17.8,11.4,23.9c0.4,8.2-2,15.9-7.3,22.9
	C461.7,369.4,460.7,369.8,459.6,369.8z"/>
<path id="XMLID_1_" class="st4" d="M225.7,186.8c3.2,4.5,8.4,6.6,12.7,5.5c3.6-0.9,5.5-3.6,6.1-4.8"/>
<path id="shape0_1_" class="st2" d="M380.5,387.8"/>
<path class="st5" d="M242.7,142.3c-2.9,4.4-5.9,8.7-8.7,13.2c-7.9,13-18.5,22.3-33.7,25.8c-10.9,2.5-21.7,1.8-32.1-2.4
	c-16-6.6-24.2-19.4-23.9-37.9c0.1-5,0.7-9.9,1.3-14.9c0.4-2.8,0-4.9-2.4-6.5c-3-2-3.5-5-2.2-8.6c0.7-1.9,1.2-3.9,1.4-6
	c0.4-5,3.3-7.3,7.5-7.4c5-0.2,10,0.1,14.9,0.3c22.2,0.9,43.5,6.1,64.3,13.9c14.2,5.3,29.4,7.8,44.5,7.1c26.1-1.2,51.2,3.9,75.5,13
	c5.7,2.1,6.4,3.3,5.9,9.4c-0.2,2.6-0.8,5.2-1,7.8c-0.3,3.6-2.1,5.5-5.4,6.9c-1.6,0.7-3.1,2.9-3.7,4.7c-1.8,5.6-2.7,11.6-4.8,17
	c-7.9,19.8-22.6,27.9-43.8,24.7c-23.3-3.5-39.9-19.3-44.9-42.6c-1-4.7-2.1-9.5-3.2-14.2c-0.2-0.9-0.6-1.9-0.9-2.8
	C246.6,140.8,243.9,140.6,242.7,142.3z"/>
<path class="st6" d="M180.6,107.9c-14,6.9-20.6,19.6-27,32.7c-0.3,0.7-1.3,0.5-1.4-0.3c-0.5-8.4,2.5-24.9,6.1-29.2
	c1.9-2.3,5.4-4.3,8.4-4.6c4.5-0.5,9.1-0.2,13.6,0C181.1,106.5,181.3,107.5,180.6,107.9z"/>
<path class="st6" d="M286.8,127.2c-13.6,7.6-19.6,20.6-25.3,34.1c-0.3,0.7-1.3,0.6-1.4-0.2c-0.9-8.4,1.2-25,4.6-29.5
	c1.8-2.4,5.2-4.5,8.1-5c4.4-0.8,9-0.7,13.6-0.7C287.2,125.8,287.5,126.8,286.8,127.2z"/>
</svg>
