<?xml version="1.0" standalone="no"?>
<!DOCTYPE svg PUBLIC "-//W3C//DTD SVG 20010904//EN"
 "http://www.w3.org/TR/2001/REC-SVG-20010904/DTD/svg10.dtd">
<svg version="1.0" xmlns="http://www.w3.org/2000/svg"
 width="820.000000pt" height="820.000000pt" viewBox="0 0 820.000000 820.000000"
 preserveAspectRatio="xMidYMid meet">
<metadata>
Created by potrace 1.14, written by Peter Selinger 2001-2017
</metadata>
<g transform="translate(0.000000,820.000000) scale(0.100000,-0.100000)"
fill="#000000" stroke="none">
<path d="M3827 7923 c-105 -74 -178 -229 -202 -425 -15 -127 -36 -507 -28
-520 15 -26 70 8 60 36 -10 26 100 577 120 604 34 46 70 65 128 70 55 5 56 4
98 -39 26 -28 76 -108 131 -214 83 -158 89 -174 90 -232 1 -52 -3 -65 -24 -88
-14 -15 -158 -127 -320 -250 -411 -310 -609 -486 -677 -602 -23 -40 -25 -48
-14 -82 16 -54 14 -79 -6 -85 -10 -2 -93 -23 -185 -45 -284 -70 -406 -126
-537 -247 -221 -205 -328 -534 -262 -809 43 -176 117 -291 323 -499 82 -82
147 -154 145 -160 -7 -21 -41 -18 -91 8 -98 49 -324 145 -395 166 -104 32
-215 25 -386 -24 -416 -120 -654 -228 -767 -347 -45 -48 -76 -98 -150 -245
-51 -101 -98 -184 -105 -184 -23 0 -35 38 -19 62 15 24 40 164 51 283 9 95
-10 267 -37 338 -42 116 -118 160 -203 119 -50 -24 -51 -27 -100 -232 -32
-134 -88 -313 -165 -524 -26 -71 -28 -167 -6 -221 9 -21 34 -57 56 -81 28 -30
40 -53 40 -73 0 -26 -7 -34 -61 -62 -38 -21 -70 -47 -85 -69 -25 -38 -65 -171
-96 -320 -29 -140 -36 -456 -14 -610 107 -732 552 -1284 1337 -1659 450 -215
908 -328 1539 -381 202 -17 881 -24 1080 -11 849 56 1549 273 2125 660 191
128 272 196 295 248 58 132 228 401 303 480 89 95 180 124 210 67 13 -26 14
-25 100 103 l87 128 0 75 c0 149 91 509 170 674 38 80 108 159 159 179 44 18
36 -11 91 315 17 96 33 184 36 196 7 31 -11 72 -41 92 -25 16 -31 15 -183 -30
-86 -26 -191 -59 -232 -73 -111 -37 -146 -40 -160 -14 -13 25 -22 18 234 162
211 118 288 182 375 309 85 123 130 235 162 404 25 127 22 265 -7 376 -38 148
-138 313 -238 392 -85 67 -160 98 -366 150 -107 27 -198 52 -202 56 -4 4 77
25 180 46 103 21 197 42 209 47 12 4 29 22 38 39 15 30 15 32 -119 327 -73
164 -150 333 -170 375 -41 87 -44 116 -18 148 16 20 53 28 303 72 380 65 465
65 513 -4 25 -36 21 -133 -9 -197 -25 -53 -156 -193 -297 -317 -62 -54 -73
-85 -38 -104 19 -10 35 3 151 124 72 74 157 168 190 208 69 85 134 212 144
281 14 104 -35 216 -112 256 -118 60 -372 112 -763 156 -155 17 -279 50 -375
98 -85 42 -295 182 -417 278 -126 99 -431 405 -513 514 -94 125 -119 147 -157
143 l-33 -3 0 -118 c0 -113 -1 -120 -24 -138 -48 -39 -63 -30 -206 136 -71 83
-123 135 -135 135 -55 0 -64 -34 -30 -120 26 -65 26 -112 1 -134 -31 -28 -80
-23 -135 12 -86 55 -108 46 -135 -54 l-11 -41 -107 -39 c-217 -77 -242 -68
-501 179 -281 269 -369 340 -498 398 -35 16 -65 29 -66 29 -2 0 -20 -12 -41
-27z m325 -1789 c53 -25 72 -60 76 -136 5 -83 -24 -153 -94 -228 -88 -94 -223
-131 -302 -84 -49 28 -76 92 -69 163 17 187 245 355 389 285z m872 -425 c41
-32 36 -75 -19 -146 -25 -32 -57 -75 -71 -95 l-26 -37 33 -48 c59 -86 132
-153 165 -153 65 0 193 101 229 180 20 44 50 59 83 41 35 -19 36 -46 1 -111
-59 -111 -210 -220 -303 -220 -83 1 -175 69 -258 191 -18 27 -37 49 -42 49 -4
0 -24 -14 -44 -31 -42 -37 -127 -79 -160 -79 -72 0 -122 52 -172 182 -38 97
-39 134 -5 150 41 19 70 -2 90 -64 21 -63 60 -144 75 -153 25 -16 157 79 184
134 8 17 11 49 8 91 -3 53 -1 69 14 88 41 50 170 69 218 31z m1132 -55 c90
-43 156 -167 157 -294 1 -106 -32 -176 -103 -219 -132 -80 -310 88 -310 294 0
91 42 178 104 216 38 23 106 25 152 3z m-2365 -214 c46 -13 87 -53 95 -94 4
-23 17 -38 50 -58 24 -15 53 -42 64 -60 27 -44 27 -126 1 -159 -17 -22 -17
-27 -5 -44 22 -29 17 -97 -9 -136 -47 -72 -291 -202 -457 -245 -74 -19 -146
-14 -193 13 -68 40 -111 189 -105 363 3 93 7 113 36 173 35 76 125 173 190
206 20 10 71 24 112 30 41 6 86 13 100 15 49 7 86 6 121 -4z m2159 -558 c79
-40 107 -91 158 -294 47 -182 49 -205 26 -254 -34 -70 -204 -197 -379 -281
-107 -51 -162 -42 -224 36 -90 114 -164 411 -131 530 16 59 67 111 109 111 26
0 31 4 31 24 0 34 40 88 80 108 39 20 121 24 151 8 13 -7 19 -7 19 0 0 5 9 19
21 31 26 26 60 21 139 -19z m-3689 -668 c42 -8 162 -39 265 -69 621 -182 965
-241 1609 -275 367 -19 659 -41 765 -56 269 -38 454 -112 552 -222 156 -173
100 -329 -163 -455 -63 -30 -172 -78 -244 -107 -184 -74 -291 -127 -439 -219
-173 -108 -228 -126 -376 -125 -124 1 -189 14 -375 77 -224 77 -438 172 -1235
549 -511 242 -633 287 -1196 433 -158 41 -292 79 -298 85 -30 30 103 174 224
243 113 63 366 136 551 156 101 12 255 5 360 -15z m-775 -960 c70 -35 169
-125 315 -284 160 -176 236 -249 317 -311 37 -28 70 -58 74 -68 10 -28 -14
-66 -43 -69 -42 -5 -172 101 -321 261 -315 337 -402 408 -469 385 -81 -28
-142 -240 -119 -410 6 -43 27 -127 46 -189 33 -104 34 -112 19 -135 -18 -29
-55 -32 -78 -6 -18 20 -68 167 -88 257 -29 139 -10 320 47 445 64 141 176 187
300 124z m4290 -359 c195 -58 289 -378 204 -693 -38 -144 -321 -427 -530 -532
-225 -113 -379 -116 -482 -10 -58 61 -82 131 -76 229 5 101 39 160 156 272
243 234 265 264 366 473 78 162 141 235 224 260 61 19 78 19 138 1z"/>
<path d="M3607 5324 c-72 -11 -96 -19 -127 -44 -60 -48 -107 -107 -124 -158
-32 -92 -10 -318 35 -363 11 -11 33 -19 50 -19 83 0 377 130 436 192 27 29 27
31 9 42 -68 40 -74 81 -16 127 44 35 50 57 22 82 -21 19 -49 21 -88 7 -33 -13
-61 -5 -75 22 -15 28 -4 62 26 78 44 24 26 51 -33 49 -15 -1 -67 -7 -115 -15z"/>
<path d="M5880 4776 c0 -22 -32 -53 -62 -60 -21 -5 -35 1 -61 24 -34 30 -70
38 -96 21 -10 -7 -12 -24 -7 -74 7 -58 5 -68 -13 -86 -24 -24 -73 -28 -91 -6
-7 8 -19 15 -26 15 -66 0 20 -384 103 -462 l25 -23 101 53 c120 62 250 152
274 188 16 25 15 32 -16 163 -38 156 -65 226 -95 246 -26 19 -36 19 -36 1z"/>
<path d="M5665 2786 c-53 -24 -92 -78 -156 -211 -87 -184 -121 -230 -304 -410
-178 -176 -205 -215 -205 -296 0 -79 31 -136 89 -162 42 -18 52 -19 113 -9 37
7 98 24 135 39 204 82 499 362 545 517 7 24 12 103 12 186 1 129 -2 152 -23
203 -27 69 -73 125 -118 143 -40 17 -50 17 -88 0z"/>
<path d="M3871 7523 c-26 -89 -49 -370 -33 -400 26 -48 95 -26 187 61 68 64
71 89 18 184 -56 101 -134 222 -144 222 -4 0 -17 -30 -28 -67z"/>
<path d="M7665 6195 c-139 -30 -322 -84 -354 -105 -11 -6 4 -34 66 -127 71
-104 84 -118 112 -121 22 -2 37 4 54 20 13 13 48 42 79 66 31 24 95 80 142
125 73 70 86 87 86 114 0 24 -22 67 -33 62 -1 0 -69 -15 -152 -34z"/>
</g>
</svg>
