<?xml version="1.0" encoding="utf-8"?>
<!-- Generator: Adobe Illustrator 25.2.0, SVG Export Plug-In . SVG Version: 6.00 Build 0)  -->
<svg version="1.1" id="Layer_1" xmlns="http://www.w3.org/2000/svg" xmlns:xlink="http://www.w3.org/1999/xlink" x="0px" y="0px"
	 viewBox="0 0 500 500" style="enable-background:new 0 0 500 500;" xml:space="preserve">
<style type="text/css">
	.st0{fill:#FFC8DD;stroke:#FFFFFF;stroke-width:7.0292;stroke-linecap:round;stroke-miterlimit:7.2;}
	.st1{fill:#7DD2ED;stroke:#FFFFFF;stroke-width:2;stroke-miterlimit:7.2;}
	.st2{fill:#FFFFFF;}
	.st3{fill:none;stroke:#FFFFFF;stroke-width:6.3627;stroke-linecap:round;stroke-miterlimit:7.2;}
	.st4{fill:none;stroke:#000000;stroke-width:7.0292;stroke-linecap:round;stroke-miterlimit:7.2;}
	.st5{fill:#7DD2ED;stroke:#FFFFFF;stroke-width:7.0292;stroke-miterlimit:7.2;}
	.st6{fill:none;stroke:#7DD2ED;stroke-width:7.0292;stroke-linecap:round;stroke-miterlimit:7.2;}
</style>
<path id="XMLID_48_" class="st0" d="M219,205.7c-5.9,2.9-21.2,11.7-29.6,29.8c-10.1,21.5-5.9,46.2,5.4,62.8c0.7,1,1.3,2,2,2.8
	c19.2,24.9,68.3,31.2,104.6,15c24.7-11.1,37.9-30.3,43.6-38.6c27-40.4,37.3-108.5,1.1-146.6c-22.3-23.4-53.4-26.4-78.6-28.5
	c-51.3-4.2-91,14.8-108.4,24.6c-67,32.5-85.3,104.3-60.5,141.9c17.2,26,56.6,37.6,96.8,30.4"/>
<ellipse id="XMLID_41_" transform="matrix(0.4903 -0.8715 0.8715 0.4903 -3.6003 318.4981)" class="st1" cx="270.5" cy="162.3" rx="22.5" ry="15"/>
<ellipse id="XMLID_40_" transform="matrix(0.5708 -0.8211 0.8211 0.5708 -12.0572 287.7493)" class="st2" cx="269.2" cy="155.4" rx="15.3" ry="8.6"/>
<ellipse id="XMLID_39_" transform="matrix(0.4903 -0.8715 0.8715 0.4903 -14.8633 280.9418)" class="st1" cx="232.8" cy="153.2" rx="22.5" ry="15"/>
<ellipse id="XMLID_38_" transform="matrix(0.5708 -0.8211 0.8211 0.5708 -20.336 252.3631)" class="st2" cx="231.2" cy="145.6" rx="15.3" ry="8.6"/>
<path id="XMLID_31_" class="st3" d="M232,186.3c3.1,4.4,8.2,6.4,12.4,5.3c3.5-0.9,5.3-3.5,6-4.6"/>
<path id="XMLID_18_" class="st4" d="M402,367.1"/>
<path id="XMLID_17_" class="st5" d="M372.2,346.9c-228.1-34.2-289.8-35.8-310.1-34.5c-7.5,0.5-16.9,1.8-17.4,5.9
	c-0.3,3.7,5.2,8,11.2,9.4c41.2,10.1,194.8,27.3,312.9,39.7c2.3,0.3,24.9,3.4,35.5-10.7c3.3-4.2,6.5-11.1,3.9-14.6
	C403.5,335.2,380.7,343.5,372.2,346.9z"/>
<circle id="XMLID_16_" class="st5" cx="160.2" cy="362.4" r="15"/>
<circle id="XMLID_15_" class="st5" cx="272.1" cy="376.7" r="15"/>
<path id="XMLID_14_" class="st6" d="M422.2,333.1c0.5,0.3,3.4,2.4,4.1,6.3c0.7,4.4-2.3,7.5-2.6,7.8"/>
<path id="XMLID_13_" class="st6" d="M440.1,326.9c0.8,0.8,5.7,5.2,6,12.4c0.3,6.2-2.8,10.4-3.7,11.7"/>
<path id="shape0_3_" class="st5" d="M382.5,377.7"/>
</svg>
