<?xml version="1.0" encoding="utf-8"?>
<!-- Generator: Adobe Illustrator 25.2.0, SVG Export Plug-In . SVG Version: 6.00 Build 0)  -->
<svg version="1.1" id="Layer_1" xmlns="http://www.w3.org/2000/svg" xmlns:xlink="http://www.w3.org/1999/xlink" x="0px" y="0px"
	 viewBox="0 0 500 500" style="enable-background:new 0 0 500 500;" xml:space="preserve">
<style type="text/css">
	.st0{fill:#FFC8DD;stroke:#FFFFFF;stroke-width:7.0544;stroke-linecap:round;stroke-miterlimit:7.2;}
	.st1{fill:none;stroke:#000000;stroke-width:7.0544;stroke-linecap:round;stroke-miterlimit:7.2;}
	.st2{fill:#7DD2ED;}
	.st3{fill:#7DD2ED;stroke:#7DD2ED;stroke-width:1.633;stroke-miterlimit:7.2;}
	.st4{fill:none;stroke:#FFFFFF;stroke-width:6.3627;stroke-linecap:round;stroke-miterlimit:7.2;}
	.st5{fill:#7DD2ED;stroke:#FFFFFF;stroke-width:7.0544;stroke-miterlimit:7.2;}
	.st6{fill:#7DD2ED;stroke:#FCFCFC;stroke-width:4.8989;stroke-miterlimit:7.2;}
	.st7{fill:#FFFFFF;}
</style>
<path id="XMLID_60_" class="st0" d="M216.3,204.8c-5.9,2.9-21.2,11.8-29.7,29.9c-10.1,21.6-5.9,46.4,5.4,63c0.7,1,1.3,2,2,2.8
	c19.3,25,68.6,31.4,105,15c24.8-11.1,38-30.4,43.8-38.7c27.1-40.5,37.4-108.9,1.1-147.1c-22.4-23.5-53.6-26.5-78.9-28.6
	c-51.4-4.2-91.3,14.9-108.8,24.7c-67.3,32.7-85.6,104.7-60.7,142.4c17.3,26.1,56.8,37.7,97.2,30.5"/>
<path id="XMLID_59_" class="st1" d="M397.1,372.3"/>
<path id="XMLID_58_" class="st2" d="M367.2,352c-228.9-34.3-290.8-35.9-311.2-34.6c-7.5,0.5-17,1.8-17.5,5.9
	c-0.3,3.8,5.2,8,11.3,9.5c41.3,10.1,195.5,27.4,314,39.8c2.3,0.3,25,3.4,35.6-10.8c3.3-4.2,6.5-11.1,3.9-14.7
	C398.5,340.3,375.7,348.6,367.2,352z"/>
<circle id="XMLID_57_" class="st3" cx="154.4" cy="372.5" r="15"/>
<circle id="XMLID_56_" class="st3" cx="266.7" cy="386.8" r="15"/>
<path class="st2" d="M418.8,355.9c-0.9,0-1.8-0.3-2.5-1c-1.4-1.4-1.4-3.6,0-5c0.1-0.1,2-2.1,1.6-4.8c-0.4-2.5-2.5-3.9-2.6-4
	c-1.6-1.1-2.1-3.3-1-4.9c1.1-1.6,3.3-2.1,4.9-1c0.8,0.5,4.7,3.4,5.6,8.7c0.9,6.2-3.1,10.4-3.6,10.9
	C420.6,355.6,419.7,355.9,418.8,355.9z"/>
<path class="st2" d="M437.5,359.7c-0.7,0-1.5-0.2-2.1-0.7c-1.6-1.2-1.9-3.4-0.7-4.9c2.2-2.9,3.2-6.1,3.1-9.5c-0.2-3.6-1.8-7-4.8-9.9
	l-0.2-0.2c-1.4-1.4-1.4-3.6,0-5s3.6-1.4,5,0l0.1,0.1c5.4,5.3,6.8,10.9,6.9,14.6c0.2,3.4-0.4,8.7-4.5,14
	C439.7,359.2,438.6,359.7,437.5,359.7z"/>
<path class="st2" d="M454.4,365.5c-0.7,0-1.4-0.2-2-0.7c-1.4-1.1-1.7-3.1-0.7-4.6c4.2-5.6,6.1-11.7,5.8-18.1
	c-0.3-6.9-3.4-13.3-9.1-18.9l-0.3-0.3c-1.3-1.3-1.3-3.3,0-4.6c1.3-1.3,3.3-1.3,4.6,0l0.2,0.2c8.7,8.5,10.8,17.3,11.1,23.2
	c0.4,7.9-2,15.5-7.1,22.3C456.4,365,455.4,365.5,454.4,365.5z"/>
<path id="XMLID_55_" class="st4" d="M226.9,187.4c3.1,4.4,8.2,6.4,12.4,5.3c3.5-0.9,5.3-3.5,6-4.6"/>
<path id="shape0_7_" class="st5" d="M377.5,382.9"/>
<path class="st6" d="M243.4,144.1c-2.9,4.2-5.8,8.4-8.4,12.8c-7.7,12.6-18,21.7-32.8,25.1c-10.6,2.4-21.1,1.8-31.2-2.4
	c-15.6-6.4-23.5-18.9-23.3-36.9c0.1-4.8,0.6-9.7,1.3-14.5c0.4-2.7,0-4.8-2.3-6.3c-3-2-3.4-4.9-2.1-8.4c0.7-1.9,1.2-3.8,1.4-5.8
	c0.4-4.8,3.2-7.1,7.3-7.2c4.8-0.2,9.7,0.1,14.5,0.3c21.6,0.9,42.3,6,62.5,13.5c13.8,5.1,28.6,7.6,43.3,6.9
	c25.4-1.2,49.8,3.8,73.5,12.7c5.5,2.1,6.2,3.2,5.8,9.1c-0.2,2.5-0.8,5.1-1,7.6c-0.3,3.5-2,5.4-5.3,6.7c-1.6,0.7-3.1,2.8-3.6,4.6
	c-1.8,5.4-2.6,11.2-4.7,16.5c-7.7,19.2-22,27.1-42.6,24c-22.7-3.4-38.8-18.8-43.7-41.4c-1-4.6-2-9.2-3.2-13.8
	c-0.2-0.9-0.6-1.8-0.9-2.7C247.2,142.7,244.6,142.4,243.4,144.1z"/>
<path class="st7" d="M183,110.6c-13.6,6.7-20,19.1-26.3,31.8c-0.3,0.7-1.3,0.5-1.4-0.3c-0.5-8.2,2.4-24.2,6-28.5
	c1.9-2.3,5.3-4.1,8.2-4.5c4.4-0.5,8.8-0.2,13.2,0C183.4,109.3,183.6,110.3,183,110.6z"/>
<path class="st7" d="M286.3,129.4c-13.3,7.4-19,20-24.6,33.1c-0.3,0.7-1.3,0.5-1.4-0.2c-0.9-8.1,1.2-24.3,4.5-28.7
	c1.8-2.3,5-4.4,7.9-4.9c4.3-0.7,8.8-0.6,13.2-0.7C286.7,128.1,287,129.1,286.3,129.4z"/>
</svg>
