<?xml version="1.0" encoding="utf-8"?>
<!-- Generator: Adobe Illustrator 25.2.0, SVG Export Plug-In . SVG Version: 6.00 Build 0)  -->
<svg version="1.1" id="Layer_1" xmlns="http://www.w3.org/2000/svg" xmlns:xlink="http://www.w3.org/1999/xlink" x="0px" y="0px"
	 viewBox="0 0 500 500" style="enable-background:new 0 0 500 500;" xml:space="preserve">
<style type="text/css">
	.st0{fill:none;stroke:#000000;stroke-width:7.0544;stroke-linecap:round;stroke-miterlimit:7.2;}
	.st1{fill:#7DD2ED;}
	.st2{fill:#7DD2ED;stroke:#7DD2ED;stroke-width:1.633;stroke-miterlimit:7.2;}
	.st3{fill:#7DD2ED;stroke:#FFFFFF;stroke-width:7.0544;stroke-miterlimit:7.2;}
	.st4{fill:#FFC8DD;stroke:#FFFFFF;stroke-width:7.0292;stroke-linecap:round;stroke-miterlimit:7.2;}
	.st5{fill:#7DD2ED;stroke:#FFFFFF;stroke-width:2;stroke-miterlimit:7.2;}
	.st6{fill:#FFFFFF;}
	.st7{fill:none;stroke:#FFFFFF;stroke-width:6.3627;stroke-linecap:round;stroke-miterlimit:7.2;}
</style>
<path id="XMLID_28_" class="st0" d="M395.6,371"/>
<path id="XMLID_27_" class="st1" d="M365.7,350.7c-228.9-34.3-290.8-35.9-311.2-34.6c-7.5,0.5-17,1.8-17.5,5.9
	c-0.3,3.8,5.2,8,11.3,9.5c41.3,10.1,195.5,27.4,314,39.8c2.3,0.3,25,3.4,35.6-10.8c3.3-4.2,6.5-11.1,3.9-14.7
	C397,339,374.2,347.3,365.7,350.7z"/>
<circle id="XMLID_26_" class="st2" cx="152.9" cy="371.1" r="15"/>
<circle id="XMLID_25_" class="st2" cx="265.3" cy="385.5" r="15"/>
<path class="st1" d="M417.3,354.6c-0.9,0-1.8-0.3-2.5-1c-1.4-1.4-1.4-3.6,0-5c0.1-0.1,2-2.1,1.6-4.8c-0.4-2.5-2.5-3.9-2.6-4
	c-1.6-1.1-2.1-3.3-1-4.9c1.1-1.6,3.3-2.1,4.9-1c0.8,0.5,4.7,3.4,5.6,8.7c0.9,6.2-3.1,10.4-3.6,10.9
	C419.1,354.2,418.2,354.6,417.3,354.6z"/>
<path class="st1" d="M436.1,358.3c-0.7,0-1.5-0.2-2.1-0.7c-1.6-1.2-1.9-3.4-0.7-4.9c2.2-2.9,3.2-6.1,3.1-9.5c-0.2-3.6-1.8-7-4.8-9.9
	l-0.2-0.2c-1.4-1.4-1.4-3.6,0-5s3.6-1.4,5,0l0.1,0.1c5.4,5.3,6.8,10.9,6.9,14.6c0.2,3.4-0.4,8.7-4.5,14
	C438.2,357.9,437.1,358.3,436.1,358.3z"/>
<path class="st1" d="M453,364.2c-0.7,0-1.4-0.2-2-0.7c-1.4-1.1-1.7-3.1-0.7-4.6c4.2-5.6,6.1-11.7,5.8-18.1
	c-0.3-6.9-3.4-13.3-9.1-18.9l-0.3-0.3c-1.3-1.3-1.3-3.3,0-4.6c1.3-1.3,3.3-1.3,4.6,0l0.2,0.2c8.7,8.5,10.8,17.3,11.1,23.2
	c0.4,7.9-2,15.5-7.1,22.3C454.9,363.7,454,364.2,453,364.2z"/>
<path id="shape0_4_" class="st3" d="M376,381.6"/>
<path id="XMLID_48_" class="st4" d="M219,205.7c-5.9,2.9-21.2,11.7-29.6,29.8c-10.1,21.5-5.9,46.2,5.4,62.8c0.7,1,1.3,2,2,2.8
	c19.2,24.9,68.3,31.2,104.6,15c24.7-11.1,37.9-30.3,43.6-38.6c27-40.4,37.3-108.5,1.1-146.6c-22.3-23.4-53.4-26.4-78.6-28.5
	c-51.3-4.2-91,14.8-108.4,24.6c-67,32.5-85.3,104.3-60.5,141.9c17.2,26,56.6,37.6,96.8,30.4"/>
<ellipse id="XMLID_41_" transform="matrix(0.4903 -0.8715 0.8715 0.4903 -3.6003 318.4981)" class="st5" cx="270.5" cy="162.3" rx="22.5" ry="15"/>
<ellipse id="XMLID_40_" transform="matrix(0.5708 -0.8211 0.8211 0.5708 -12.0572 287.7493)" class="st6" cx="269.2" cy="155.4" rx="15.3" ry="8.6"/>
<ellipse id="XMLID_39_" transform="matrix(0.4903 -0.8715 0.8715 0.4903 -14.8633 280.9418)" class="st5" cx="232.8" cy="153.2" rx="22.5" ry="15"/>
<ellipse id="XMLID_38_" transform="matrix(0.5708 -0.8211 0.8211 0.5708 -20.336 252.3631)" class="st6" cx="231.2" cy="145.6" rx="15.3" ry="8.6"/>
<path id="XMLID_31_" class="st7" d="M232,186.3c3.1,4.4,8.2,6.4,12.4,5.3c3.5-0.9,5.3-3.5,6-4.6"/>
</svg>
