<?xml version="1.0" encoding="UTF-8" standalone="no"?>
<!-- Created with Inkscape (http://www.inkscape.org/) -->

<svg
   width="108.57888mm"
   height="105.43192mm"
   viewBox="0 0 108.57888 105.43192"
   version="1.1"
   id="svg1"
   xml:space="preserve"
   sodipodi:docname="hearchco.svg"
   inkscape:export-filename="hearchco.svg"
   inkscape:export-xdpi="96"
   inkscape:export-ydpi="96"
   xmlns:inkscape="http://www.inkscape.org/namespaces/inkscape"
   xmlns:sodipodi="http://sodipodi.sourceforge.net/DTD/sodipodi-0.dtd"
   xmlns="http://www.w3.org/2000/svg"
   xmlns:svg="http://www.w3.org/2000/svg"><sodipodi:namedview
     id="namedview1"
     pagecolor="#505050"
     bordercolor="#ffffff"
     borderopacity="1"
     inkscape:showpageshadow="0"
     inkscape:pageopacity="0"
     inkscape:pagecheckerboard="1"
     inkscape:deskcolor="#d1d1d1"
     inkscape:document-units="mm" /><defs
     id="defs1"><inkscape:path-effect
       effect="bspline"
       id="path-effect33"
       is_visible="true"
       lpeversion="1.3"
       weight="33.333333"
       steps="2"
       helper_size="0"
       apply_no_weight="true"
       apply_with_weight="true"
       only_selected="false"
       uniform="false" /><inkscape:path-effect
       effect="bspline"
       id="path-effect31"
       is_visible="true"
       lpeversion="1.3"
       weight="33.333333"
       steps="2"
       helper_size="0"
       apply_no_weight="true"
       apply_with_weight="true"
       only_selected="false"
       uniform="false" /><inkscape:path-effect
       effect="bspline"
       id="path-effect29"
       is_visible="true"
       lpeversion="1.3"
       weight="33.333333"
       steps="2"
       helper_size="0"
       apply_no_weight="true"
       apply_with_weight="true"
       only_selected="false"
       uniform="false" /><inkscape:path-effect
       effect="bspline"
       id="path-effect27"
       is_visible="true"
       lpeversion="1.3"
       weight="33.333333"
       steps="2"
       helper_size="0"
       apply_no_weight="true"
       apply_with_weight="true"
       only_selected="false"
       uniform="false" /><inkscape:path-effect
       effect="bspline"
       id="path-effect25"
       is_visible="true"
       lpeversion="1.3"
       weight="33.333333"
       steps="2"
       helper_size="0"
       apply_no_weight="true"
       apply_with_weight="true"
       only_selected="false"
       uniform="false" /><inkscape:path-effect
       effect="bspline"
       id="path-effect18"
       is_visible="true"
       lpeversion="1.3"
       weight="33.333333"
       steps="2"
       helper_size="0"
       apply_no_weight="true"
       apply_with_weight="true"
       only_selected="false"
       uniform="false" /></defs><g
     inkscape:label="Layer 1"
     inkscape:groupmode="layer"
     id="layer1"
     transform="translate(-48.319493,-75.198889)"><path
       d="m 101.80667,76.249988 c -0.87956,0.07617 -1.75904,0.152238 -2.638601,0.228409 -0.714192,0.276692 -1.428314,0.553748 -2.142505,0.830441 -0.580729,1.521482 -1.161801,3.04258 -1.742529,4.564062 l -0.654224,7.177857 0.373104,4.327901 -6.4394,6.054927 c -1.046335,0.546158 -2.089802,1.099385 -3.142444,1.634005 -1.052642,0.53463 -2.114287,1.05082 -3.197221,1.52239 -0.553241,0.34151 -1.069706,0.73352 -1.574064,1.14153 -0.504359,0.40802 -0.99674,0.83181 -1.502234,1.23714 -0.267357,0.36191 -0.515839,0.73567 -0.752409,1.11673 -0.23657,0.38105 -0.461408,0.76942 -0.681612,1.16065 -0.440408,0.78246 -0.862485,1.57623 -1.32395,2.34559 -0.09629,0.24656 -0.160667,0.49911 -0.204639,0.75499 -0.04397,0.25589 -0.06752,0.5152 -0.08113,0.77618 -0.02723,0.52197 -0.01564,1.0499 -0.05323,1.56683 -0.01176,0.62421 -0.0087,1.24847 0.0067,1.87224 0.01543,0.62377 0.04306,1.24732 0.08165,1.87017 0.07718,1.24571 0.196918,2.48875 0.342615,3.72794 -0.05922,0.16005 -0.152589,0.27758 -0.267684,0.36587 -0.115095,0.0883 -0.252237,0.14773 -0.398942,0.19172 -0.293411,0.088 -0.625428,0.11459 -0.899687,0.19017 -0.864408,0.21058 -1.729216,0.42099 -2.591056,0.64285 -0.861841,0.22187 -1.720618,0.4551 -2.57297,0.71107 -0.496214,0.14631 -0.985346,0.31292 -1.469161,0.49248 -0.483815,0.17955 -0.962576,0.37228 -1.439188,0.57102 -0.953225,0.39747 -1.896951,0.81886 -2.852539,1.20871 -0.631346,0.23435 -1.224621,0.56212 -1.856735,0.79013 -0.175695,0.0428 -0.356044,0.0525 -0.533817,0.0331 -0.177774,-0.0194 -0.352734,-0.0678 -0.516765,-0.14108 -0.16403,-0.0733 -0.317186,-0.17113 -0.451652,-0.2899 -0.134466,-0.11878 -0.250434,-0.25851 -0.339514,-0.41445 -0.341787,-0.46833 -0.629288,-0.9741 -0.929659,-1.47071 -0.150185,-0.2483 -0.303359,-0.49431 -0.468188,-0.73226 -0.164829,-0.23794 -0.341298,-0.4677 -0.537435,-0.68367 -0.204117,-0.1122 -0.417315,-0.20088 -0.636137,-0.27027 -0.218822,-0.0694 -0.443491,-0.11924 -0.671277,-0.154 -0.227785,-0.0347 -0.458355,-0.0542 -0.689363,-0.0625 -0.231009,-0.008 -0.462425,-0.006 -0.690914,0.004 -0.199341,0.0902 -0.374202,0.2104 -0.529684,0.3514 -0.155482,0.141 -0.291516,0.3031 -0.413411,0.47749 -0.121896,0.17439 -0.229565,0.36105 -0.328146,0.55139 -0.09858,0.19033 -0.18783,0.38424 -0.273368,0.57309 -0.135219,0.31718 -0.250267,0.63989 -0.349333,0.96635 -0.09907,0.32646 -0.182157,0.65648 -0.255281,0.9896 -0.146248,0.66625 -0.251272,1.34335 -0.355017,2.02055 -0.103745,0.6772 -0.206404,1.35487 -0.349333,2.0221 -0.07147,0.33361 -0.15302,0.66447 -0.249597,0.99167 -0.09658,0.32719 -0.208131,0.65077 -0.340031,0.96893 -0.286116,0.71896 -0.584326,1.43508 -0.858346,2.15956 -0.137009,0.36224 -0.268093,0.7262 -0.388606,1.09399 -0.120513,0.36779 -0.230528,0.73905 -0.325562,1.11518 -0.0094,0.0852 -0.0042,0.16516 0.01189,0.24081 0.01604,0.0757 0.04315,0.14724 0.07751,0.21601 0.06873,0.13752 0.166732,0.26404 0.266134,0.39015 0.0994,0.12611 0.200115,0.25187 0.273368,0.38809 0.07325,0.13623 0.119266,0.28275 0.109554,0.45062 -0.01971,0.16172 -0.06055,0.31645 -0.115238,0.46664 -0.05469,0.15019 -0.123117,0.29587 -0.198438,0.43873 -0.150641,0.28573 -0.328339,0.56116 -0.475423,0.84285 -0.224644,0.39865 -0.427554,0.80831 -0.609265,1.22731 -0.18171,0.419 -0.342073,0.84699 -0.481624,1.28261 -0.165027,0.52604 -0.389234,1.03388 -0.570508,1.55133 -0.05795,0.25555 -0.06952,0.51565 -0.07596,0.77669 -0.0064,0.26104 -0.0077,0.52303 -0.04496,0.78135 l -0.330729,5.40381 1.011308,7.39851 4.128947,7.33392 c 1.737628,1.67904 3.47549,3.35838 5.213118,5.03742 1.4694,1.08333 2.9386,2.1666 4.408,3.24993 l 13.513904,5.43946 c 4.506505,0.69401 9.013082,1.38802 13.519588,2.08204 4.641922,-0.0801 9.283846,-0.16021 13.925755,-0.24029 5.1836,-0.96094 10.36688,-1.92209 15.55048,-2.88303 2.07941,-1.19917 4.16727,-2.38738 6.23217,-3.6127 1.03245,-0.61266 2.05897,-1.23465 3.0763,-1.87172 1.01733,-0.63707 2.02543,-1.28926 3.01997,-1.96267 1.96159,-1.27734 3.92281,-2.55446 5.8844,-3.83181 1.91666,-2.22396 3.83337,-4.44799 5.75004,-6.67194 0.53579,-1.03989 1.05475,-2.08836 1.55907,-3.14348 0.50433,-1.05512 0.99425,-2.1169 1.47226,-3.1843 0.95603,-2.1348 1.86444,-4.29132 2.74609,-6.45749 0.18551,-0.64979 0.33418,-1.3064 0.45837,-1.96784 0.12419,-0.66144 0.22406,-1.32758 0.31161,-1.99574 0.1751,-1.33633 0.30138,-2.68111 0.47802,-4.01474 0.011,-0.33623 -0.0101,-0.6688 -0.0512,-0.99891 -0.041,-0.33011 -0.10162,-0.65799 -0.1695,-0.98495 -0.13576,-0.65392 -0.30003,-1.30457 -0.39224,-1.96371 0.0181,-0.25491 0.0713,-0.49851 0.14676,-0.73535 0.0755,-0.23684 0.17296,-0.46703 0.28061,-0.6935 0.2153,-0.45294 0.47007,-0.89261 0.66249,-1.3503 0.52669,-1.08528 1.05305,-2.17085 1.57975,-3.25614 0.23637,-2.36845 0.39349,-4.74337 0.56844,-7.11687 -0.12067,-0.35473 -0.26812,-0.6968 -0.4315,-1.03095 -0.16338,-0.33415 -0.34271,-0.66061 -0.52762,-0.98443 -0.3698,-0.64765 -0.76153,-1.28456 -1.09037,-1.95234 -0.87676,-1.57193 -1.75357,-3.14406 -2.63033,-4.71599 -0.0847,-0.24432 -0.16209,-0.4974 -0.22427,-0.75499 -0.0622,-0.2576 -0.10883,-0.51952 -0.13126,-0.78187 -0.0224,-0.26235 -0.0207,-0.52534 0.0139,-0.78393 0.0346,-0.25859 0.10189,-0.51281 0.21084,-0.75913 0.21355,-0.2789 0.44976,-0.53476 0.70022,-0.77566 0.25045,-0.2409 0.51496,-0.46674 0.78599,-0.68626 0.54208,-0.43905 1.10916,-0.8521 1.63556,-1.30535 0.26315,-0.21139 0.52121,-0.43073 0.77102,-0.65939 0.2498,-0.22866 0.4913,-0.46669 0.7214,-0.71469 0.2301,-0.248 0.44865,-0.50626 0.65267,-0.77566 0.20402,-0.2694 0.39376,-0.54997 0.56534,-0.84284 0.33888,-0.50832 0.68114,-1.01784 0.99477,-1.54358 0.15682,-0.26287 0.30669,-0.52984 0.44494,-0.80253 0.13824,-0.2727 0.26521,-0.55152 0.37672,-0.83768 0.0665,-0.28619 0.11728,-0.5753 0.15296,-0.866611 0.0357,-0.291307 0.0562,-0.584514 0.062,-0.877983 0.006,-0.293469 -0.004,-0.587367 -0.0269,-0.880049 -0.0233,-0.292683 -0.0607,-0.584384 -0.11214,-0.873332 -0.13123,-0.367843 -0.31221,-0.711394 -0.51418,-1.043347 -0.20197,-0.331953 -0.42508,-0.652179 -0.64027,-0.974101 -0.20355,-0.178465 -0.42612,-0.319056 -0.66094,-0.435632 -0.23482,-0.116577 -0.48174,-0.209286 -0.73329,-0.292489 -0.5031,-0.166406 -1.02507,-0.294671 -1.50792,-0.498677 -0.3872,-0.145421 -0.78279,-0.243345 -1.18339,-0.309542 -0.40059,-0.0662 -0.80642,-0.100308 -1.21439,-0.118339 -0.81596,-0.03606 -1.64056,-0.0069 -2.44998,-0.03669 l -5.24981,-0.07803 c -1.07552,-0.317709 -2.15116,-0.635721 -3.22668,-0.95343 -0.57471,-0.537027 -1.16835,-1.051205 -1.7756,-1.548743 -0.60725,-0.497537 -1.22819,-0.978064 -1.85725,-1.44849 -1.25812,-0.940852 -2.54877,-1.83993 -3.82974,-2.746603 -1.02138,-1.086094 -2.04351,-2.176425 -3.02411,-3.30109 -0.49029,-0.562332 -0.96996,-1.133354 -1.43453,-1.716691 -0.46458,-0.583338 -0.91405,-1.179188 -1.34256,-1.791105 -0.11551,-0.225595 -0.26194,-0.460708 -0.44752,-0.648023 -0.0928,-0.09366 -0.1953,-0.175388 -0.3085,-0.237711 -0.1132,-0.06232 -0.23705,-0.105478 -0.37259,-0.121957 -0.15888,-0.01844 -0.30175,0.004 -0.42943,0.05633 -0.12768,0.05236 -0.24042,0.134427 -0.33848,0.235644 -0.0981,0.101217 -0.18163,0.221716 -0.25167,0.34985 -0.07,0.128133 -0.12643,0.264283 -0.17001,0.397391 -0.0363,0.08742 -0.0815,0.159891 -0.13384,0.219625 -0.0524,0.05973 -0.11178,0.106372 -0.17674,0.14211 -0.12992,0.07148 -0.28151,0.09898 -0.44028,0.09663 -0.15877,-0.0023 -0.32463,-0.03451 -0.48369,-0.08113 -0.15907,-0.04662 -0.31154,-0.107638 -0.44235,-0.168982 -0.35003,-0.132119 -0.72575,-0.244472 -1.07436,-0.401526 -0.1743,-0.07853 -0.34156,-0.168516 -0.49557,-0.277502 -0.15401,-0.108986 -0.29505,-0.237147 -0.41548,-0.392741 -0.0941,-0.116348 -0.21271,-0.230611 -0.34623,-0.329179 -0.13353,-0.09857 -0.28174,-0.181174 -0.4346,-0.234094 -0.15286,-0.05292 -0.31037,-0.0764 -0.46251,-0.05581 -0.0761,0.0103 -0.1506,0.03173 -0.22272,0.06563 -0.0721,0.0339 -0.14207,0.08061 -0.20774,0.141593 -0.10839,0.113381 -0.17988,0.238894 -0.22686,0.372587 -0.047,0.133693 -0.0691,0.275324 -0.0786,0.420129 -0.0189,0.289611 0.0132,0.592407 10e-4,0.871265 -0.0343,0.142991 -0.097,0.270839 -0.18035,0.383439 -0.0833,0.112601 -0.18747,0.210008 -0.30437,0.290939 -0.1169,0.08093 -0.24632,0.145804 -0.38137,0.193786 -0.13506,0.04798 -0.27563,0.07875 -0.41341,0.0925 -0.2038,0.03531 -0.39703,0.102444 -0.57671,0.19482 -0.17969,0.09238 -0.3457,0.210394 -0.49558,0.347266 -0.14988,0.136871 -0.28353,0.292673 -0.39791,0.46147 -0.11437,0.168797 -0.20949,0.350317 -0.28267,0.538469 -0.12816,0.289773 -0.27485,0.592871 -0.46664,0.855761 -0.0959,0.131446 -0.20324,0.253037 -0.32504,0.357601 -0.1218,0.104564 -0.258,0.192073 -0.41238,0.256315 -0.36055,0.105009 -0.73569,0.150941 -1.10743,0.208256 -0.18586,0.02866 -0.37085,0.05991 -0.55293,0.103353 -0.18209,0.04344 -0.36095,0.09916 -0.53485,0.175183 -0.15875,0.03577 -0.31328,0.0349 -0.46251,0.0072 -0.14923,-0.02766 -0.29333,-0.08256 -0.43046,-0.155029 -0.13714,-0.07247 -0.2677,-0.162304 -0.39016,-0.260966 -0.12246,-0.09866 -0.23688,-0.205892 -0.3421,-0.312126 -2.58849,-2.649559 -5.20731,-5.269176 -7.82019,-7.894608 z"
       style="display:inline;fill:#ffb380;stroke-width:0.264583;paint-order:stroke markers fill"
       id="path2"
       inkscape:label="fill"
       transform="translate(-1.2083333e-6)" /><path
       style="display:inline;fill:#ffffff;fill-opacity:1"
       d="m 99.498047,75.205078 c -2.4146,0.83312 -4.119514,3.141516 -4.648923,5.591512 -0.270134,1.238964 -0.190583,2.517257 -0.34846,3.771928 -0.185546,2.373632 -0.360083,4.749938 -0.688164,7.109216 -1.0419,2.404541 -3.165049,4.048884 -4.857422,5.96875 -3.24935,2.859156 -7.542467,4.380586 -10.384766,7.726566 -2.522439,3.1408 -3.324726,7.32558 -3.120751,11.26971 0.06067,1.11616 -0.04248,2.53031 -1.141125,3.13125 -1.994341,0.96349 -4.172205,1.45154 -6.218757,2.28519 -1.966091,0.68664 -3.932182,1.37329 -5.898273,2.05994 -1.921321,-0.86308 -3.051281,-3.02434 -5.207031,-3.4375 -1.434859,-0.24079 -2.665718,0.97185 -3.092999,2.24473 -0.893438,2.11617 -1.351446,4.37925 -2.046343,6.56219 -1.913218,6.70772 -3.734396,13.58861 -3.506115,20.62384 0.136666,4.46958 1.468917,8.91755 3.973319,12.63635 3.834131,5.9577 9.772585,10.33251 16.258228,13.0372 7.97632,3.38497 16.691975,4.62815 25.304535,4.82733 6.6301,0.11165 13.30629,-0.2927 19.79463,-1.72124 9.071,-2.04397 17.80778,-6.19836 24.5374,-12.69673 6.50552,-6.30183 10.902,-14.73145 12.34582,-23.67337 0.81533,-4.61051 1.73632,-9.20194 2.52474,-13.81706 0.27162,-1.77438 0.56315,-3.56035 0.60753,-5.35524 -0.21708,-3.78017 -2.02168,-7.20038 -3.70614,-10.50745 -0.51068,-1.07807 -0.3992,-2.49029 0.4988,-3.33378 2.1469,-2.85329 4.93907,-5.3587 6.12769,-8.817 0.5855,-1.800885 0.32682,-3.974443 -1.08086,-5.333215 -0.97305,-1.015244 -2.37428,-1.436047 -3.73193,-1.608405 -3.6128,-0.73272 -7.32481,-1.030657 -10.85407,-2.138016 -2.57203,-0.875502 -4.6023,-2.757423 -6.63708,-4.480632 -3.07396,-2.695119 -5.99235,-5.55877 -8.94997,-8.379189 -0.8821,-0.538857 -2.06033,-0.393651 -2.88086,0.195313 -1.39077,0.40598 -2.66689,-0.862755 -4.05664,-0.441407 -2.33486,1.306547 -4.04439,3.423876 -6.13672,5.048829 -0.92752,0.410921 -1.80149,-0.349509 -2.44531,-0.935547 -2.23923,-2.041189 -4.48045,-4.084139 -6.77401,-6.062603 -0.98103,-0.65259 -2.11761,-1.073042 -3.258479,-1.345074 -0.09934,-0.02502 -0.200975,-0.0047 -0.301494,-0.0064 z m 0.132812,1.779297 c 3.049121,1.100057 5.206051,3.633347 7.539061,5.753906 1.17476,1.076106 2.22585,2.508392 3.88281,2.830078 1.32896,0.09707 2.47825,-0.705055 3.73243,-0.992187 0.72645,-0.294766 0.36641,-1.238579 0.77343,-1.759766 0.73483,-0.344226 1.33142,0.418727 1.94922,0.6875 0.61521,0.352192 1.62617,-0.0064 1.57068,-0.808231 0.0721,-0.871873 -0.78858,-1.575406 -0.55505,-2.459347 0.4851,-0.684647 1.31047,0.02228 1.58233,0.549809 0.82016,1.00645 1.64531,2.02315 2.60517,2.89941 0.6613,0.41936 1.52419,-0.315315 1.35937,-1.041016 -0.0309,-0.810205 -0.24748,-1.629445 -0.0625,-2.435547 0.61583,-0.359601 1.36097,0.137203 1.61719,0.71875 3.48795,4.689221 7.95901,8.644307 13.02344,11.556641 1.72126,0.903311 3.66676,1.17833 5.57273,1.391754 3.29201,0.480914 6.71904,0.658557 9.78373,2.064565 1.45743,0.927689 1.69385,2.987297 1.0283,4.473366 -0.93082,2.28463 -2.81924,3.96636 -4.47448,5.72557 -0.49669,0.4103 -0.83196,1.07815 -1.4181,1.33889 -0.86324,-0.27822 -0.30117,-1.18042 0.27585,-1.419 1.4246,-1.31079 3.05744,-2.50247 4.01167,-4.22518 0.42861,-0.89496 0.58138,-2.067799 -0.0571,-2.904652 -1.13234,-0.830008 -2.61344,-0.453109 -3.88891,-0.268815 -2.15572,0.367188 -4.31216,0.730397 -6.4646,1.116471 -0.65007,0.337496 -0.75243,1.305306 -0.28711,1.835936 1.38476,3.0625 2.76953,6.125 4.1543,9.1875 0.07,0.67219 -0.59837,1.27486 -1.25586,1.20313 -1.59961,0.33919 -3.19922,0.67838 -4.79883,1.01757 2.44764,1.03365 5.33621,0.93438 7.52148,2.58594 3.14743,2.44098 4.37933,6.82816 3.47069,10.63695 -0.59938,3.64223 -2.86275,7.07745 -6.22047,8.71929 -1.31245,0.78188 -2.65656,1.50864 -4.00412,2.22775 -0.23702,0.73431 0.88902,0.93441 1.30656,0.50137 1.17887,-0.50328 2.46558,-0.67863 3.67069,-1.11128 0.7485,-0.2307 1.49564,-0.46579 2.24345,-0.69869 0.75011,0.0189 1.22622,0.94916 0.9043,1.59766 -0.87455,5.91708 -2.04742,11.94485 -5.04102,17.20117 -5.15573,9.45662 -14.02722,16.67887 -24.12175,20.30867 -8.24923,3.13846 -17.18284,4.00728 -25.952468,3.7636 -7.847156,-0.1142 -15.828859,-0.87743 -23.197266,-3.7461 -5.987743,-2.2983 -11.712964,-5.71875 -15.816406,-10.73047 -5.064915,-6.22079 -6.97886,-14.89798 -4.872241,-22.65341 0.252957,-0.85057 0.390409,-1.78193 0.880923,-2.53107 0.453212,-0.54324 1.080822,-0.91984 1.74913,-1.13778 0.417978,-0.57974 -0.03661,-1.35125 -0.576171,-1.66406 -1.118908,-1.205 -0.926605,-3.07087 -0.230673,-4.43826 1.060138,-2.78675 1.928033,-5.65264 2.47286,-8.58518 0.434926,-1.19006 2.351434,-1.39554 2.941563,-0.23026 0.945217,1.28622 0.95841,2.96712 1.033919,4.49471 -0.0035,1.58124 -0.291392,3.14307 -0.588763,4.69063 -0.714886,0.26696 0.193162,1.51778 0.444226,0.5784 1.221503,-2.04844 1.854985,-4.54496 3.782336,-6.09598 3.297774,-2.17719 7.157216,-3.23271 10.923829,-4.2793 1.245216,-0.33353 2.570047,-0.30386 3.793732,0.10527 1.697914,0.50839 3.215985,1.48644 4.897674,2.02168 0.414189,0.2462 1.111261,0.88557 1.455078,0.23243 -0.07659,-0.61667 -0.86602,-0.83077 -1.181213,-1.33654 -2.102066,-2.01801 -4.310428,-4.2226 -5.026491,-7.14708 -1.33884,-5.3486 1.901945,-11.43307 7.134298,-13.22682 1.93728,-0.73088 3.98535,-1.08392 5.979656,-1.61769 0.502329,-0.59673 -0.512051,-1.28191 -0.04102,-1.886718 1.171012,-2.038524 3.127554,-3.425731 4.845953,-4.966048 2.783706,-2.284291 5.777085,-4.297362 8.566165,-6.574967 0.7235,-0.923688 0.30912,-2.214751 -0.30274,-3.080078 -0.7334,-1.498602 -1.40637,-3.059633 -2.49805,-4.341797 -1.235907,-0.84056 -3.198716,0.165733 -3.222656,1.664062 -0.46442,2.283198 -0.882856,4.575333 -1.3125,6.865235 0.671729,0.582997 -1.02175,1.19183 -0.71146,0.228056 0.135724,-2.559298 0.137818,-5.139577 0.551304,-7.673369 0.397975,-1.82141 1.306466,-3.634333 2.896484,-4.689453 0.08269,-0.02991 0.166652,-0.02486 0.251953,-0.01758 z m 0.400391,4.738281 c 0.911,1.17751 1.58675,2.510139 2.29297,3.814453 0.21257,0.88318 -0.57903,1.587036 -1.27344,1.96875 -0.45339,0.355914 -1.01782,0.95163 -1.648436,0.638672 -0.6962,-0.60017 -0.286186,-1.582461 -0.216202,-2.347459 0.138682,-1.363301 0.0203,-2.830069 0.725967,-4.062697 l 0.03711,-0.01367 z m 51.93945,18.09961 c 0.57981,0.439444 0.27713,1.378104 -0.29687,1.675784 -1.02775,1.00169 -2.06403,2.01315 -3.27344,2.79687 -0.20191,0.65833 -1.32299,0.80766 -1.58594,0.1211 -0.60023,-0.93362 -1.23468,-1.84447 -1.85937,-2.76172 2.18244,-1.01627 4.57657,-1.40985 6.91601,-1.892581 z m -50.87695,0.466794 c -1.856161,0.57729 -3.520788,2.32553 -3.403803,4.36073 0.131932,1.07709 1.061423,2.01941 2.15185,2.11193 0.640013,-0.21941 0.332003,-0.99228 0.150391,-1.44141 -0.172459,-0.70588 0.343302,-1.36811 0.691422,-1.94604 0.43401,-0.62673 0.74588,-1.36294 1.32616,-1.87232 0.59787,-0.39802 1.12679,0.38784 1.0957,0.9336 0.0269,0.85919 -0.46888,1.60163 -0.8457,2.33593 -0.21179,0.39801 -1.05615,0.61121 -0.58204,1.16211 0.61282,0.28045 0.77141,-0.83675 1.19385,-1.15059 0.67735,-0.91687 1.19045,-2.21173 0.55811,-3.28691 -0.46136,-0.80047 -1.40456,-1.33763 -2.33594,-1.20703 z m 28.55859,5.4961 c -2.30339,0.74893 -3.30233,3.71286 -2.32031,5.83398 0.32439,0.98897 0.81292,2.23484 1.99635,2.38467 1.69412,0.28581 3.31833,-1.2973 3.25284,-2.97817 0.21157,-1.96685 -0.58141,-4.20753 -2.42106,-5.14869 -0.15949,-0.0647 -0.33398,-0.11918 -0.50782,-0.0918 z m -1.11523,1.85546 c 0.35853,0.80641 0.6689,1.63273 0.98828,2.45508 -0.13087,1.01097 -0.47671,1.97502 -0.79687,2.9375 -1.02965,-0.70803 -1.05653,-2.07849 -1.29517,-3.18553 -0.0701,-0.78808 0.16644,-1.66177 0.81274,-2.16408 0.0935,-0.0285 0.19148,-0.0642 0.29102,-0.043 z"
       id="path1"
       sodipodi:nodetypes="ssssssssssssscssssssccsssscsssssscsssssssssssssssssssscsscsscsscsscsssssssssssssssssssssssssscssssssssssscsssssscsssscsssssssssscsssssssssssssssssssscsssssssssssssssssscssssssssssssscssssssssssccsssssssssssssssscssssscsssssssssssssssssssssssssssccsssssssssscssscsssssssscsssccsssscssssssssssssssssssssssssss"
       inkscape:label="outline" /><path
       id="path5-2"
       style="display:inline;fill:#2b1100;stroke-width:0.264583"
       transform="rotate(-13.567529)"
       d="m 103.95945,137.47395 a 3.7776463,5.344523 0 0 1 -3.77765,5.34453 3.7776463,5.344523 0 0 1 -3.777645,-5.34453 3.7776463,5.344523 0 0 1 3.777645,-5.34452 3.7776463,5.344523 0 0 1 3.77765,5.34452 z m -27.764822,-10.4656 a 3.7776463,5.344523 55.255394 0 1 -6.544554,-0.0581 3.7776463,5.344523 55.255394 0 1 2.238642,-6.15005 3.7776463,5.344523 55.255394 0 1 6.544554,0.0581 3.7776463,5.344523 55.255394 0 1 -2.238642,6.15005 z"
       inkscape:label="eyes" /><path
       style="fill:none;fill-opacity:1;stroke:#ffffff;stroke-width:1.5;stroke-linecap:round"
       transform="rotate(20.347195,89.708896,138.10994)"
       d="m 70.579345,157.43284 c -1.202194,-1.41971 -2.404397,-2.83944 -2.99796,-4.9279 -0.593563,-2.08847 -0.578497,-4.84558 1.181809,-5.18704 1.760307,-0.34147 5.265718,1.73269 7.58932,2.92255 2.323603,1.18985 3.465292,1.49535 4.606999,1.80085"
       id="path31"
       inkscape:original-d="m 70.579345,157.43284 c -1.202197,-1.41971 -2.404394,-2.83944 -3.60659,-4.25915 0.01507,-2.75722 0.03013,-5.51433 0.0452,-8.2715 3.505546,2.07424 7.010952,4.14841 10.51643,6.2226 1.141732,0.30551 2.28342,0.61101 3.425128,0.91651"
       inkscape:path-effect="#path-effect33" /><path
       style="fill:none;fill-opacity:1;stroke:#ffffff;stroke-width:1.5;stroke-linecap:round"
       inkscape:path-effect="#path-effect31"
       inkscape:original-d="m 121.93744,134.45815 c 0.0679,1.21289 0.13579,2.42577 0.20368,3.63865 -0.44079,1.30917 -0.88157,2.61834 -1.32235,3.92751 -0.88717,1.39556 -1.77434,2.79111 -2.66151,4.18667 0.45522,1.11506 0.91035,2.23017 1.36557,3.34524 0.96659,0.35397 1.93317,0.70792 2.89976,1.06189 1.52788,-1.295 3.05574,-2.58999 4.5836,-3.885 0.86963,-2.2591 2.04586,-4.38999 2.87856,-6.66272 0.14578,-0.68943 -0.28109,-1.32511 -0.36637,-1.99621 -0.24882,-1.00516 -0.49765,-2.01033 -0.74646,-3.01551 -0.75974,-0.99449 -1.51948,-1.989 -2.27921,-2.9835 -0.99072,-0.11379 -1.98142,-0.22759 -2.97213,-0.34139 -0.52771,0.90813 -1.05543,1.81625 -1.58314,2.72437 z"
       transform="rotate(20.347195,89.708896,138.10994)"
       d="m 122.23524,134.61054 c -0.22991,1.0605 -0.16201,2.27338 -0.34846,3.53441 -0.18644,1.26102 -0.62723,2.57019 -1.2912,3.92256 -0.66398,1.35236 -1.55115,2.74791 -1.76714,4.00323 -0.21599,1.25531 0.2392,2.3704 0.95009,3.10492 0.71089,0.73453 1.67747,1.08848 2.9247,0.61796 1.24723,-0.47052 2.77509,-1.76551 4.01867,-3.52319 1.24358,-1.75769 2.20441,-3.98163 2.6248,-5.41138 0.42039,-1.42974 0.29361,-2.1205 0.10824,-2.95526 -0.18538,-0.83477 -0.4342,-1.83994 -0.93848,-2.83978 -0.50427,-0.99984 -1.26402,-1.99434 -2.13924,-2.54849 -0.87523,-0.55415 -1.86593,-0.66794 -2.62514,-0.27078 -0.75922,0.39717 -1.28693,1.30529 -1.51684,2.3658 z"
       id="path29" /><path
       style="fill:none;fill-opacity:1;stroke:#ffffff;stroke-width:1.5;stroke-linecap:round"
       inkscape:path-effect="#path-effect29"
       inkscape:original-d="m 116.40039,106.51758 c 0.0994,0.61369 0.20675,1.22635 0.28125,1.84375 -0.34115,-0.33854 -0.68229,-0.67709 -1.02344,-1.01563 -0.44466,0.13216 -0.88932,0.26433 -1.33398,0.39649 -0.29688,0.36653 -0.59375,0.73307 -0.89063,1.09961 0.46768,0.68 0.96452,1.36197 1.40235,2.04882 -0.27618,-0.22333 -0.54963,-0.55894 -0.94141,-0.52539 -0.40299,-0.0299 -0.80599,-0.0599 -1.20898,-0.0898 -0.0423,0.68229 -0.0846,1.36458 -0.12696,2.04688 0.93835,1.35288 1.93784,2.66333 2.78321,4.07812 0.49216,0.4258 1.1419,0.59741 1.67187,0.96289 0.1491,0.0925 0.32265,0.0397 0.469,-0.0258 0.22103,-0.0762 0.45047,-0.12003 0.64819,-0.23197 1.43685,-1.74609 2.8737,-3.49219 4.31055,-5.23828 -0.54277,-0.37382 -0.87973,-0.95879 -1.31176,-1.44323 -0.71232,-0.9118 -1.21965,-1.96225 -1.84254,-2.93568 -0.17909,-0.43368 -0.67001,-0.56957 -1.01563,-0.83398 -0.21876,-0.18746 -0.48936,-0.23636 -0.76741,-0.1859 -0.3679,0.0164 -0.73579,0.0328 -1.10368,0.0492 z"
       transform="rotate(20.347195,89.708896,138.10994)"
       d="m 116.44726,106.82486 c 0.0469,0.30727 0.14065,0.922 0.0169,1.05997 -0.12371,0.13796 -0.46485,-0.20059 -0.85776,-0.30378 -0.3929,-0.10319 -0.83756,0.029 -1.20833,0.27833 -0.37076,0.24934 -0.66764,0.61588 -0.583,1.13967 0.0846,0.5238 0.56101,1.21977 0.63811,1.47039 0.0771,0.25061 -0.27423,0.0545 -0.61795,-0.0398 -0.34373,-0.0943 -0.74673,-0.12428 -0.96939,0.2019 -0.22265,0.32618 -0.26497,1.00847 0.17791,2.02956 0.44289,1.0211 1.37064,2.3805 2.11119,3.21937 0.74054,0.83887 1.30266,1.16261 1.65246,1.31878 0.34981,0.15617 0.52573,0.14649 0.71053,0.103 0.18481,-0.0435 0.40211,-0.12127 1.22592,-1.03203 0.82382,-0.91076 2.26067,-2.65686 2.76329,-3.76733 0.50263,-1.11048 0.059,-1.59853 -0.46518,-2.32612 -0.5242,-0.72759 -1.14056,-1.70961 -1.60756,-2.33025 -0.46699,-0.62065 -0.82685,-0.91615 -1.11967,-1.08437 -0.29282,-0.16822 -0.55961,-0.23284 -0.8691,-0.25506 -0.3095,-0.0222 -0.67739,-0.006 -0.86133,0.002 -0.18395,0.008 -0.18395,0.008 -0.13708,0.31538 z"
       id="path27" /><path
       style="fill:none;fill-opacity:1;stroke:#ffffff;stroke-width:1.5;stroke-linecap:round"
       inkscape:path-effect="#path-effect27"
       inkscape:original-d="m 84.894531,111.2168 c -0.722656,1.19336 -1.445312,2.38672 -2.167969,3.58008 0.97461,1.75976 1.949219,3.51953 2.923829,5.27929 0.374513,0.0276 0.763515,0.0773 1.122876,-0.0634 0.482478,-0.12992 0.964957,-0.25984 1.447436,-0.38976 1.103483,-1.04952 2.207225,-2.09876 3.310547,-3.14844 0.4597,-0.71011 0.914418,-1.42342 1.369141,-2.13672 -0.229818,-0.34049 -0.459636,-0.68099 -0.689453,-1.02148 -0.410809,0.0871 -0.82124,0.17635 -1.234376,0.25195 0.130975,-0.21198 0.330868,-0.42304 0.490235,-0.63281 0.189394,-0.23875 0.395396,-0.46699 0.576172,-0.71094 0.07633,-0.26855 -0.208221,-0.46394 -0.253907,-0.71289 -0.108854,-0.2324 -0.194905,-0.58416 -0.503906,-0.60742 -0.400763,-0.0687 -0.792158,-0.20254 -1.189345,-0.2961 -0.287893,-0.0976 -0.450372,0.32248 -0.684504,0.4468 -0.167496,0.14785 -0.521891,0.47359 -0.572569,0.51026 0.284223,-0.28673 0.568446,-0.57346 0.852668,-0.86018 -0.116365,-0.28824 -0.07487,-0.69154 -0.393554,-0.85526 -0.319987,-0.21687 -0.639974,-0.43373 -0.959961,-0.6506 -1.147787,0.67252 -2.295573,1.34505 -3.44336,2.01758 z"
       transform="rotate(20.347195,89.708896,138.10994)"
       d="m 84.533203,111.81348 c -0.361328,0.59668 -1.083984,1.79004 -0.958009,3.2666 0.125976,1.47656 1.100589,3.23633 1.773778,4.10571 0.673188,0.86939 1.058157,0.84765 1.482465,0.77236 0.424308,-0.0753 0.906787,-0.20522 1.699786,-0.79492 0.792998,-0.5897 1.896513,-1.63918 2.67646,-2.52004 0.779946,-0.88086 1.236329,-1.5931 1.34961,-2.11947 0.113282,-0.52636 -0.116539,-0.86686 -0.43717,-0.99511 -0.320631,-0.12826 -0.732135,-0.0443 -0.861972,-0.10022 -0.129838,-0.0559 0.04732,-0.28463 0.223915,-0.50713 0.176598,-0.2225 0.369909,-0.46102 0.427262,-0.68595 0.05735,-0.22493 -0.03644,-0.48827 -0.15764,-0.70152 -0.121202,-0.21326 -0.329136,-0.46391 -0.594573,-0.5957 -0.265437,-0.13179 -0.665365,-0.23136 -0.941938,-0.22934 -0.276572,0.002 -0.582786,0.2019 -0.776724,0.34838 -0.193937,0.14647 -0.553255,0.46669 -0.434373,0.34402 0.118882,-0.12266 0.403107,-0.40939 0.48032,-0.69378 0.07721,-0.28439 -0.06869,-0.60146 -0.287612,-0.83796 -0.218925,-0.2365 -0.538908,-0.45336 -1.272795,-0.22553 -0.733886,0.22783 -1.881674,0.90035 -2.455568,1.23662 -0.573894,0.33626 -0.573894,0.3363 -0.935222,0.93298 z"
       id="path26" /><path
       style="fill:none;fill-opacity:1;stroke:#ffffff;stroke-width:1.5;stroke-linecap:round"
       inkscape:path-effect="#path-effect18"
       inkscape:original-d="m 96.13079,104.57023 c 0.701674,0.86668 1.403354,1.73335 2.105038,2.60003 0.472187,-0.18578 0.944315,-0.37164 1.416493,-0.55741 0.550389,-0.95537 1.100749,-1.91069 1.651119,-2.86603 -0.12,-0.43086 -0.23999,-0.86169 -0.35995,-1.29256 -0.32977,-0.37308 -0.65953,-0.74616 -0.989299,-1.11925 0.705949,-0.35448 1.411849,-0.70902 2.117779,-1.06354 0.14845,0.12765 0.29688,0.25531 0.44532,0.38296 -0.47455,1.08019 -0.94907,2.16035 -1.42361,3.24052 0.26938,0.22377 0.53874,0.44754 0.80811,0.67131 0.93779,0.60976 1.87554,1.2195 2.81331,1.82926 0.57475,-0.0915 1.14949,-0.18295 1.72423,-0.27443 0.59498,-0.90162 1.18992,-1.8032 1.78488,-2.7048 0.0201,-0.49981 0.0401,-0.9996 0.0602,-1.4994"
       transform="rotate(20.347195,89.708896,138.10994)"
       d="m 96.13079,104.57023 c 0.701679,0.86668 1.403355,1.73335 1.990285,2.07379 0.586929,0.34043 1.059081,0.15463 1.570358,-0.41595 0.511277,-0.57059 1.061637,-1.52591 1.276827,-2.21901 0.21519,-0.6931 0.0952,-1.12394 -0.12966,-1.52591 -0.22488,-0.40197 -0.55464,-0.77505 -0.36656,-1.13885 0.18808,-0.36381 0.894,-0.71831 1.32119,-0.83174 0.42718,-0.11343 0.57562,0.0142 0.41257,0.61814 -0.16305,0.60392 -0.63758,1.68408 -0.74016,2.33605 -0.10258,0.65197 0.16678,0.87574 0.77036,1.29251 0.60358,0.41676 1.54133,1.0265 2.29759,1.28564 0.75626,0.25914 1.331,0.16767 1.91586,-0.32888 0.58486,-0.49655 1.1798,-1.39813 1.48731,-2.09884 0.30752,-0.7007 0.32758,-1.20049 0.34765,-1.70029"
       id="path16" /><path
       id="path5-2-9"
       style="display:inline;fill:#ffffff;stroke-width:0.191101"
       transform="matrix(0.98571909,-0.16839799,0.18865584,0.98204327,0,0)"
       d="m 108.7926,130.955 a 2.7838235,3.7834501 0 0 1 -2.78382,3.78345 2.7838235,3.7834501 0 0 1 -2.78382,-3.78345 2.7838235,3.7834501 0 0 1 2.78382,-3.78345 2.7838235,3.7834501 0 0 1 2.78382,3.78345 z m -27.322383,-9.31128 a 2.6513582,3.8213988 52.617926 0 1 -4.66114,0.26042 2.6513582,3.8213988 52.617926 0 1 1.377241,-4.42434 2.6513582,3.8213988 52.617926 0 1 4.66114,-0.26041 2.6513582,3.8213988 52.617926 0 1 -1.377241,4.42433 z"
       inkscape:label="pupils" /><path
       id="path25"
       style="fill:#ffffff;stroke:none;stroke-width:0.264583;paint-order:stroke markers fill"
       d="m 141.39071,159.546 c -0.0397,-0.77468 -1.0852,-0.81612 -2.15474,1.1e-4 -1.06953,0.81623 -2.16302,2.49007 -3.26401,4.35454 -1.10099,1.86448 -2.20942,3.91949 -1.62297,3.85721 0.58645,-0.0623 2.86769,-2.24178 4.49145,-4.08554 1.62375,-1.84375 2.58994,-3.35164 2.55027,-4.12632 z m 7.22538,-15.50102 c -0.46933,-0.29446 -1.4805,0.29595 -2.35183,1.85294 -0.87132,1.557 -1.60277,4.08049 -2.06565,6.25451 -0.46289,2.17401 -0.65719,3.99842 -0.25952,4.11544 0.39766,0.11702 1.38726,-1.47334 2.31949,-3.35291 0.93223,-1.87956 1.80704,-4.04821 2.2807,-5.72223 0.47366,-1.67401 0.54615,-2.8533 0.0768,-3.14775 z M 63.275658,130.91371 c 0.418805,-0.62563 1.256416,-1.87688 3.440545,-2.9248 2.184129,-1.04793 5.714639,-1.8925 8.573814,-1.90394 2.859176,-0.0114 5.046857,0.81022 8.40516,1.78149 3.358302,0.97126 7.886994,2.09205 13.458179,2.65246 5.571184,0.56041 12.184504,0.56041 16.506904,1.22291 4.32241,0.6625 6.35369,1.98746 7.3586,3.48268 1.00491,1.49523 0.98341,3.16064 -0.98804,4.55462 -1.97145,1.39398 -5.89269,2.51645 -8.62073,3.98152 -2.72804,1.46506 -4.26274,3.27263 -7.70121,2.95784 -3.43846,-0.3148 -8.780455,-2.75188 -13.244618,-4.83545 -4.464163,-2.08357 -8.050252,-3.81349 -10.66029,-5.0128 -2.610038,-1.1993 -4.243886,-1.86792 -6.905755,-2.66798 -2.661868,-0.80005 -6.351574,-1.73148 -8.196464,-2.1972 -1.84489,-0.46573 -1.8449,-0.46573 -1.426095,-1.09135 z"
       inkscape:label="specks"
       transform="translate(-1.2083333e-6)"
       inkscape:original-d="m 142.39658,158.81276 c -1.04553,-0.0414 -2.09107,-0.0829 -3.13661,-0.12432 -1.09353,1.6739 -2.18702,3.34774 -3.28054,5.02161 -1.10846,2.05508 -2.21689,4.11009 -3.32533,6.16514 2.28134,-2.1796 4.56258,-4.35911 6.84387,-6.53867 0.96623,-1.50795 1.93241,-3.01584 2.89861,-4.52376 z m 6.76134,-15.65264 c -1.01116,0.59041 -2.02233,1.18081 -3.0335,1.77121 -0.73148,2.52359 -1.46293,5.04708 -2.19439,7.57061 -0.19431,1.8245 -0.38861,3.64891 -0.58291,5.47337 0.98963,-1.59042 1.97923,-3.18078 2.96884,-4.77117 0.87485,-2.16874 1.74966,-4.33739 2.62449,-6.50609 0.0725,-1.17933 0.14498,-2.35862 0.21747,-3.53793 z M 62.856853,131.53933 c 0.837609,-1.25125 1.675218,-2.5025 2.512826,-3.75374 3.530652,-0.84461 7.061163,-1.68918 10.591745,-2.53377 2.18777,0.8217 4.375451,1.64337 6.563177,2.46506 4.528878,1.12084 9.057571,2.24163 13.586357,3.36245 6.613582,0 13.226902,0 19.840352,0 2.03136,1.325 4.06264,2.64996 6.09396,3.97494 -0.0215,1.66547 -0.043,3.33088 -0.0645,4.99633 -3.9214,1.12251 -7.84264,2.24498 -11.76395,3.36747 -1.53477,1.80764 -3.06947,3.61521 -4.6042,5.42281 -5.3422,-2.43719 -10.684192,-4.87428 -16.026288,-7.31141 -3.586231,-1.73 -7.172322,-3.45992 -10.758482,-5.18988 -1.633916,-0.66865 -3.267765,-1.33727 -4.901647,-2.00591 -3.689854,-0.93147 -7.37956,-1.8629 -11.06934,-2.79435 z"
       inkscape:path-effect="#path-effect25" /></g></svg>
